<svg xmlns="http://www.w3.org/2000/svg" class="ei-chart" width="720" height="572" viewBox="0 0 720 572" font-family="Inter, 'Segoe UI', system-ui, -apple-system, sans-serif" role="img" aria-label="Sektorji S&amp;P 500: sprememba cene v tednu. Zaprtje 25. 9. 2026 do zaprtja 2. 10. 2026, v %">
<style>
  .ei-chart {
    --ei-surface: var(--color-surface, #FCFAF5);
    --ei-border: var(--color-border, #D8D3C5);
    --ei-grid: var(--color-border, #E6E2D6);
    --ei-axis: var(--color-border-strong, #BDB7A8);
    --ei-ink: var(--color-text, #1A1A1A);
    --ei-muted: var(--color-text-muted, #6B6B6B);
    --ei-rise: var(--chart-rise, #2a78d6);
    --ei-fall: var(--chart-fall, #e34948);
    --ei-a: var(--chart-rise, #2a78d6);
    --ei-b: var(--chart-vlozki, #0d9488);
    --ei-c: var(--chart-obresti, #c4531d);
    --ei-benchmark: var(--color-text-muted, #6B6B6B);
  }
  @media (prefers-color-scheme: dark) {
    .ei-chart {
    --ei-surface: var(--color-surface, #181818);
    --ei-border: var(--color-border, #2A2A2A);
    --ei-grid: var(--color-border, #232323);
    --ei-axis: var(--color-border-strong, #3A3A3A);
    --ei-ink: var(--color-text, #F0F0EE);
    --ei-muted: var(--color-text-muted, #888888);
      --ei-benchmark: var(--color-text-muted, #888888);
    }
  }
</style>
<rect x="0.5" y="0.5" width="719" height="571" rx="10" style="fill:var(--ei-surface);stroke:var(--ei-border)"/>
<text x="24" y="38" font-size="19" style="fill:var(--ei-ink)" font-weight="600">Sektorji S&amp;P 500: sprememba cene v tednu</text>
<text x="24" y="62" font-size="13.5" style="fill:var(--ei-muted)">Zaprtje 25. 9. 2026 do zaprtja 2. 10. 2026, v %</text>
<line x1="383.57191413141413" y1="92" x2="383.57191413141413" y2="480" style="stroke:var(--ei-grid)" stroke-width="1"/><text x="383.57191413141413" y="498" font-size="11" style="fill:var(--ei-muted);font-variant-numeric:tabular-nums" text-anchor="middle">-2 %</text><line x1="434.28595706570707" y1="92" x2="434.28595706570707" y2="480" style="stroke:var(--ei-grid)" stroke-width="1"/><text x="434.28595706570707" y="498" font-size="11" style="fill:var(--ei-muted);font-variant-numeric:tabular-nums" text-anchor="middle">-1 %</text><line x1="485" y1="92" x2="485" y2="480" style="stroke:var(--ei-axis)" stroke-width="1"/><text x="485" y="498" font-size="11" style="fill:var(--ei-muted);font-variant-numeric:tabular-nums" text-anchor="middle">0 %</text><line x1="535.7140429342929" y1="92" x2="535.7140429342929" y2="480" style="stroke:var(--ei-grid)" stroke-width="1"/><text x="535.7140429342929" y="498" font-size="11" style="fill:var(--ei-muted);font-variant-numeric:tabular-nums" text-anchor="middle">+1 %</text><line x1="586.4280858685859" y1="92" x2="586.4280858685859" y2="480" style="stroke:var(--ei-grid)" stroke-width="1"/><text x="586.4280858685859" y="498" font-size="11" style="fill:var(--ei-muted);font-variant-numeric:tabular-nums" text-anchor="middle">+2 %</text><text x="24" y="121" font-size="14" style="fill:var(--ei-ink)" font-weight="400">Informacijska tehnologija</text><text x="266" y="121" font-size="12" style="fill:var(--ei-muted)" text-anchor="end">XLK</text><path d="M485,107 h87.46784783629073 a4,4 0 0 1 4,4 v10 a4,4 0 0 1 -4,4 h-87.46784783629073 z" style="fill:var(--ei-rise)"/><text x="582.4678478362907" y="121" font-size="13" style="fill:var(--ei-ink);font-variant-numeric:tabular-nums" font-weight="400" text-anchor="start">+1,80 %</text><text x="24" y="153" font-size="14" style="fill:var(--ei-ink)" font-weight="400">Energija</text><text x="266" y="153" font-size="12" style="fill:var(--ei-muted)" text-anchor="end">XLE</text><path d="M485,139 h59.76276618128645 a4,4 0 0 1 4,4 v10 a4,4 0 0 1 -4,4 h-59.76276618128645 z" style="fill:var(--ei-rise)"/><text x="554.7627661812865" y="153" font-size="13" style="fill:var(--ei-ink);font-variant-numeric:tabular-nums" font-weight="400" text-anchor="start">+1,26 %</text><text x="24" y="185" font-size="14" style="fill:var(--ei-ink)" font-weight="400">Komunalne storitve</text><text x="266" y="185" font-size="12" style="fill:var(--ei-muted)" text-anchor="end">XLU</text><path d="M485,171 h37.073303372483906 a4,4 0 0 1 4,4 v10 a4,4 0 0 1 -4,4 h-37.073303372483906 z" style="fill:var(--ei-rise)"/><text x="532.0733033724839" y="185" font-size="13" style="fill:var(--ei-ink);font-variant-numeric:tabular-nums" font-weight="400" text-anchor="start">+0,81 %</text><text x="24" y="217" font-size="14" style="fill:var(--ei-ink)" font-weight="700">S&amp;P 500</text><text x="266" y="217" font-size="12" style="fill:var(--ei-muted)" text-anchor="end">indeks</text><path d="M485,203 h-9.550792272043054 a4,4 0 0 0 -4,4 v10 a4,4 0 0 0 4,4 h9.550792272043054 z" style="fill:var(--ei-benchmark)"/><text x="465.44920772795695" y="217" font-size="13" style="fill:var(--ei-ink);font-variant-numeric:tabular-nums" font-weight="700" text-anchor="end">-0,27 %</text><text x="24" y="249" font-size="14" style="fill:var(--ei-ink)" font-weight="400">Industrija</text><text x="266" y="249" font-size="12" style="fill:var(--ei-muted)" text-anchor="end">XLI</text><path d="M485,235 h-10.281074490296874 a4,4 0 0 0 -4,4 v10 a4,4 0 0 0 4,4 h10.281074490296874 z" style="fill:var(--ei-fall)"/><text x="464.7189255097031" y="249" font-size="13" style="fill:var(--ei-ink);font-variant-numeric:tabular-nums" font-weight="400" text-anchor="end">-0,28 %</text><text x="24" y="281" font-size="14" style="fill:var(--ei-ink)" font-weight="400">Ciklične potrošne dobrine</text><text x="266" y="281" font-size="12" style="fill:var(--ei-muted)" text-anchor="end">XLY</text><path d="M485,267 h-19.85081439199797 a4,4 0 0 0 -4,4 v10 a4,4 0 0 0 4,4 h19.85081439199797 z" style="fill:var(--ei-fall)"/><text x="455.149185608002" y="281" font-size="13" style="fill:var(--ei-ink);font-variant-numeric:tabular-nums" font-weight="400" text-anchor="end">-0,47 %</text><text x="24" y="313" font-size="14" style="fill:var(--ei-ink)" font-weight="400">Nepremičnine</text><text x="266" y="313" font-size="12" style="fill:var(--ei-muted)" text-anchor="end">XLRE</text><path d="M485,299 h-87.51856187922505 a4,4 0 0 0 -4,4 v10 a4,4 0 0 0 4,4 h87.51856187922505 z" style="fill:var(--ei-fall)"/><text x="387.48143812077495" y="313" font-size="13" style="fill:var(--ei-ink);font-variant-numeric:tabular-nums" font-weight="400" text-anchor="end">-1,80 %</text><text x="24" y="345" font-size="14" style="fill:var(--ei-ink)" font-weight="400">Osnovne potrošne dobrine</text><text x="266" y="345" font-size="12" style="fill:var(--ei-muted)" text-anchor="end">XLP</text><path d="M485,331 h-90.55633305098917 a4,4 0 0 0 -4,4 v10 a4,4 0 0 0 4,4 h90.55633305098917 z" style="fill:var(--ei-fall)"/><text x="384.44366694901083" y="345" font-size="13" style="fill:var(--ei-ink);font-variant-numeric:tabular-nums" font-weight="400" text-anchor="end">-1,86 %</text><text x="24" y="377" font-size="14" style="fill:var(--ei-ink)" font-weight="400">Materiali</text><text x="266" y="377" font-size="12" style="fill:var(--ei-muted)" text-anchor="end">XLB</text><path d="M485,363 h-91.72275603847794 a4,4 0 0 0 -4,4 v10 a4,4 0 0 0 4,4 h91.72275603847794 z" style="fill:var(--ei-fall)"/><text x="383.27724396152206" y="377" font-size="13" style="fill:var(--ei-ink);font-variant-numeric:tabular-nums" font-weight="400" text-anchor="end">-1,89 %</text><text x="24" y="409" font-size="14" style="fill:var(--ei-ink)" font-weight="400">Komunikacijske storitve</text><text x="266" y="409" font-size="12" style="fill:var(--ei-muted)" text-anchor="end">XLC</text><path d="M485,395 h-114.52378974173604 a4,4 0 0 0 -4,4 v10 a4,4 0 0 0 4,4 h114.52378974173604 z" style="fill:var(--ei-fall)"/><text x="360.47621025826396" y="409" font-size="13" style="fill:var(--ei-ink);font-variant-numeric:tabular-nums" font-weight="400" text-anchor="end">-2,34 %</text><text x="24" y="441" font-size="14" style="fill:var(--ei-ink)" font-weight="400">Finance</text><text x="266" y="441" font-size="12" style="fill:var(--ei-muted)" text-anchor="end">XLF</text><path d="M485,427 h-120.84275949134894 a4,4 0 0 0 -4,4 v10 a4,4 0 0 0 4,4 h120.84275949134894 z" style="fill:var(--ei-fall)"/><text x="354.15724050865106" y="441" font-size="13" style="fill:var(--ei-ink);font-variant-numeric:tabular-nums" font-weight="400" text-anchor="end">-2,46 %</text><text x="24" y="473" font-size="14" style="fill:var(--ei-ink)" font-weight="400">Zdravstvo</text><text x="266" y="473" font-size="12" style="fill:var(--ei-muted)" text-anchor="end">XLV</text><path d="M485,459 h-130.28571428571428 a4,4 0 0 0 -4,4 v10 a4,4 0 0 0 4,4 h130.28571428571428 z" style="fill:var(--ei-fall)"/><text x="344.7142857142857" y="473" font-size="13" style="fill:var(--ei-ink);font-variant-numeric:tabular-nums" font-weight="400" text-anchor="end">-2,65 %</text><rect x="24" y="517" width="10" height="10" rx="2" style="fill:var(--ei-rise)"/><text x="40" y="526" font-size="12" style="fill:var(--ei-muted)">rast</text><rect x="92" y="517" width="10" height="10" rx="2" style="fill:var(--ei-fall)"/><text x="108" y="526" font-size="12" style="fill:var(--ei-muted)">padec</text><rect x="167" y="517" width="10" height="10" rx="2" style="fill:var(--ei-benchmark)"/><text x="183" y="526" font-size="12" style="fill:var(--ei-muted)">S&amp;P 500</text>
<text x="24" y="554" font-size="12" style="fill:var(--ei-muted)">Vir: Yahoo Finance (sektorski ETF-ji SPDR), FRED (S&amp;P 500) · engineering-investor.com</text>
</svg>
